<?xml version="1.0" encoding="UTF-8" standalone="no"?>
<!-- Created with Inkscape (http://www.inkscape.org/) -->

<svg
   xmlns:dc="http://purl.org/dc/elements/1.1/"
   xmlns:cc="http://creativecommons.org/ns#"
   xmlns:rdf="http://www.w3.org/1999/02/22-rdf-syntax-ns#"
   xmlns:svg="http://www.w3.org/2000/svg"
   xmlns="http://www.w3.org/2000/svg"
   xmlns:sodipodi="http://sodipodi.sourceforge.net/DTD/sodipodi-0.dtd"
   xmlns:inkscape="http://www.inkscape.org/namespaces/inkscape"
   width="120"
   height="30"
   viewBox="0 0 31.75 7.9375002"
   version="1.1"
   id="svg8"
   inkscape:version="0.92.5 (2060ec1f9f, 2020-04-08)"
   sodipodi:docname="logo.svg"
   inkscape:export-filename="/home/james/Server/www/wordpress/wp-content/themes/wp-lighthouse/includes/assets/images/logo.png"
   inkscape:export-xdpi="96"
   inkscape:export-ydpi="96">
  <defs
     id="defs2" />
  <sodipodi:namedview
     id="base"
     pagecolor="#ffffff"
     bordercolor="#666666"
     borderopacity="1.0"
     inkscape:pageopacity="0.0"
     inkscape:pageshadow="2"
     inkscape:zoom="1.979899"
     inkscape:cx="-29.469618"
     inkscape:cy="122.2805"
     inkscape:document-units="mm"
     inkscape:current-layer="text825"
     showgrid="false"
     units="px"
     inkscape:window-width="1920"
     inkscape:window-height="1031"
     inkscape:window-x="0"
     inkscape:window-y="24"
     inkscape:window-maximized="1"
     showguides="true"
     inkscape:guide-bbox="true" />
  <metadata
     id="metadata5">
    <rdf:RDF>
      <cc:Work
         rdf:about="">
        <dc:format>image/svg+xml</dc:format>
        <dc:type
           rdf:resource="http://purl.org/dc/dcmitype/StillImage" />
        <dc:title></dc:title>
      </cc:Work>
    </rdf:RDF>
  </metadata>
  <g
     inkscape:label="Layer 1"
     inkscape:groupmode="layer"
     id="layer1"
     transform="translate(0,-289.06248)">
    <g
       aria-label="thantai"
       style="font-style:normal;font-weight:normal;font-size:12.35225964px;line-height:1.25;font-family:sans-serif;letter-spacing:0px;word-spacing:0px;fill:#ffffff;fill-opacity:1;stroke:none;stroke-width:0.12866937"
       id="text819">
      <g
         id="g886"
         transform="matrix(1.1671339,0,0,1.1671339,8.4419165,6.0276307)"
         style="fill:#000000">
        <g
           aria-label="casino"
           style="font-style:normal;font-weight:normal;font-size:10.75485039px;line-height:1.25;font-family:sans-serif;letter-spacing:0px;word-spacing:0px;fill:#000000;fill-opacity:1;stroke:none;stroke-width:0.03459549"
           id="text825">
          <g
             id="g827"
             transform="translate(0.22377472,-4.6090498e-6)">
            <path
               id="path827"
               style="font-style:normal;font-variant:normal;font-weight:bold;font-stretch:normal;font-family:Dyuthi;-inkscape-font-specification:'Dyuthi Bold';fill:#ffffff;stroke-width:0.03459549"
               d="m -3.4572811,248.62742 q 0,0 0,0.021 0,0.1838 -0.094525,0.32559 -0.215307,0.28883 -1.0345242,0.28883 -1.0922895,0 -1.8694954,-0.70894 -0.777206,-0.70894 -0.777206,-1.71195 0,-1.00302 0.777206,-1.71196 0.7772059,-0.70894 1.8694954,-0.70894 0.3833516,0.0105 0.7456977,0.10503 0.3833516,0.12604 0.3833516,0.51989 v 0.0368 q 0,0.26782 -0.1890501,0.42011 -0.2100557,0.15229 -0.5986587,0.0788 -0.388603,-0.0788 -0.8822338,0.11553 -0.2783238,0.10503 -0.4411169,0.39911 -0.1680446,0.29933 -0.1680446,0.65117 v 0.0578 q 0,0.53564 0.3623461,0.92424 0.362346,0.38335 0.8507254,0.38335 0.1995529,0.021 0.441117,-0.021 0.241564,-0.0315 0.4358655,0.13653 0.1890501,0.15755 0.1890501,0.39911 z"
               inkscape:connector-curvature="0" />
            <path
               id="path829"
               style="font-style:normal;font-variant:normal;font-weight:bold;font-stretch:normal;font-family:Dyuthi;-inkscape-font-specification:'Dyuthi Bold';fill:#ffffff;stroke-width:0.03459549"
               d="m -1.4354953,246.70016 q 0,0 0,0.34659 0,0.54615 0.2888266,0.9295 0.28882651,0.38335 0.69843507,0.37285 0.24156402,0.0263 0.48837943,-0.0473 0.49888222,-0.17329 0.49888222,-0.7562 0,0 0,-1.77497 -0.0945251,-0.29933 -0.54614474,-0.46737 -0.4516197,-0.1733 -0.93999913,0.0578 -0.48837945,0.22581 -0.48837945,1.33911 z m -0.7667032,1.81173 q -0.6721781,-0.70894 -0.6721781,-1.71196 0,-1.00826 0.6721781,-1.7172 0.6721782,-0.70894 1.62793146,-0.70894 0.80346295,0 1.11329506,0.70894 0,-0.23106 0.17329593,-0.40436 0.15229037,-0.15229 0.38335165,-0.15229 h 0.4043571 q 0.2310613,0 0.3938544,0.15229 0.1627932,0.1733 0.1627932,0.40436 v 3.83352 q 0,0.13653 -0.094525,0.22055 -0.089274,0.084 -0.2153071,0.084 h -0.630167 q -0.13653617,0 -0.31508349,-0.18905 -0.17854732,-0.18905 -0.3203349,-0.21006 -0.14178757,-0.021 -0.26782098,0.063 -0.51988778,0.33609 -0.78770877,0.33609 -0.95575326,0 -1.62793146,-0.70894 z"
               inkscape:connector-curvature="0" />
            <path
               id="path831"
               style="font-style:normal;font-variant:normal;font-weight:bold;font-stretch:normal;font-family:Dyuthi;-inkscape-font-specification:'Dyuthi Bold';fill:#ffffff;stroke-width:0.03459549"
               d="m 2.7288583,248.43837 q 0.047263,-0.19955 0.2573182,-0.32559 0.1890501,-0.11553 0.509385,-0.0105 0.3203349,0.10503 0.6511726,0.0945 0.630167,-0.0105 0.630167,-0.39386 0,-0.1733 -0.1365362,-0.28357 -0.1365361,-0.11028 -0.5513961,-0.25732 -1.3653619,-0.47263 -1.3548591,-1.42838 0.010503,-0.68793 0.535642,-1.11855 0.5198878,-0.43061 1.3916188,-0.43061 0.4096086,-0.005 0.8454741,0.11553 0.1943015,0.0525 0.3098321,0.23106 0.1102792,0.17855 0.052514,0.38335 v 0.005 q -0.03676,0.19956 -0.2310612,0.32034 -0.1943015,0.11553 -0.4411169,0.0473 -0.2520668,-0.0683 -0.4883795,-0.0788 -0.5618989,-0.0105 -0.5618989,0.37285 0,0.15754 0.1627932,0.28357 0.1627931,0.12079 0.60391,0.27308 1.2655854,0.44636 1.2708368,1.44938 0.010503,0.68793 -0.509385,1.11855 -0.5198878,0.42536 -1.528155,0.42536 -0.5303906,0 -1.0555297,-0.14179 -0.1837987,-0.0473 -0.3045808,-0.25207 -0.1155306,-0.18905 -0.057765,-0.38335 z"
               inkscape:connector-curvature="0" />
            <path
               id="path833"
               style="font-style:normal;font-variant:normal;font-weight:bold;font-stretch:normal;font-family:Dyuthi;-inkscape-font-specification:'Dyuthi Bold';fill:#ffffff;stroke-width:0.03459549"
               d="m 7.5601387,249.22083 q -0.3255863,0 -0.5566475,-0.22581 -0.2258098,-0.23106 -0.2258098,-0.55665 v -3.09832 q 0,-0.32559 0.2310612,-0.55665 0.2363126,-0.23106 0.5513961,-0.23106 h 0.010503 q 0.3150835,0 0.5461448,0.23106 0.2310612,0.23106 0.2310612,0.55665 v 3.09832 q 0,0.32559 -0.2310612,0.55665 -0.2310613,0.23106 -0.5461448,0.22581 z m 0.7246921,-5.91307 q 0,0.34134 -0.241564,0.57765 -0.2363127,0.23632 -0.5671503,0.23632 -0.3360891,0 -0.5671503,-0.23632 -0.2310613,-0.23631 -0.2363127,-0.57765 0,-0.34134 0.2363127,-0.5724 0.2310612,-0.23631 0.5671503,-0.23106 0.3255863,0 0.5671503,0.22581 0.241564,0.23106 0.241564,0.57765 z"
               inkscape:connector-curvature="0" />
            <path
               id="path835"
               style="font-style:normal;font-variant:normal;font-weight:bold;font-stretch:normal;font-family:Dyuthi;-inkscape-font-specification:'Dyuthi Bold';fill:#ffffff;stroke-width:0.03459549"
               d="m 13.935328,246.74217 q 0,0 0.0105,1.901 0,0.29933 -0.220558,0.51989 -0.152291,0.14704 -0.530391,0.14179 h -0.0053 q -0.372849,0 -0.519888,-0.14179 -0.220559,-0.21005 -0.220559,-0.51989 v -1.99027 q 0,-0.75095 -0.456871,-0.97676 -0.462122,-0.22581 -0.992513,0.0945 -0.53039,0.32034 -0.504133,0.64067 v 2.23184 q 0,0.30984 -0.210056,0.51989 -0.147039,0.14704 -0.5198878,0.14179 0,0 -0.026257,0 -0.3728488,0 -0.5198878,-0.14179 Q 8.99902,248.9425 8.99902,248.64317 v -3.73374 q 0,-0.2048 0.1522904,-0.34659 0.1522904,-0.14179 0.3360891,-0.14179 h 0.5461445 q 0.204804,0 0.341341,0.15229 0.136536,0.14704 0.136536,0.32559 v 0.0105 q 0.7562,-0.44636 1.123798,-0.50938 1.260334,-0.21531 1.932512,0.65117 0.362346,0.47788 0.367597,1.69095 z"
               inkscape:connector-curvature="0" />
            <path
               id="path837"
               style="font-style:normal;font-variant:normal;font-weight:bold;font-stretch:normal;font-family:Dyuthi;-inkscape-font-specification:'Dyuthi Bold';fill:#ffffff;stroke-width:0.03459549"
               d="m 16.991639,248.3806 q 0.430614,0 0.777206,-0.39385 0.278324,-0.32034 0.278324,-1.56492 -0.0053,-0.62491 -0.294078,-0.94525 -0.294078,-0.32033 -0.761452,-0.32033 -0.404357,0 -0.703687,0.33609 -0.357094,0.3991 -0.357094,0.92949 0.0053,1.17632 0.357094,1.56492 0.351844,0.3886 0.703687,0.39385 z m 1.790725,-3.38714 q 0.740446,0.73519 0.740446,1.77497 0,1.03977 -0.750949,1.78022 -0.745698,0.73519 -1.638434,0.72994 -0.07352,0.005 -0.141788,0 -1.008267,0.042 -1.769719,-0.71419 -0.7562,-0.7562 -0.7562,-1.80122 0.0053,-1.05028 0.735194,-1.78023 0.735195,-0.72994 1.643686,-0.72469 0.06827,-0.005 0.141788,-0.005 1.055529,0 1.795976,0.74045 z"
               inkscape:connector-curvature="0" />
          </g>
        </g>
      </g>
    </g>
  </g>
</svg>
